<svg xmlns="http://www.w3.org/2000/svg" version="1.1" xmlns:xlink="http://www.w3.org/1999/xlink"
    xmlns:svgjs="http://svgjs.com/svgjs" width="512" height="512" x="0" y="0" viewBox="0 0 176 176"
    style="enable-background:new 0 0 512 512" xml:space="preserve" class="">
    <g>
        <g data-name="Layer 2">
            <g data-name="53.swift">
                <rect width="176" height="176" fill="#e64b22" rx="16.33" data-original="#e64b22" class=""></rect>
                <path fill="#ffffff"
                    d="M100.8 39.88c48.36 32.27 32.68 67.73 32.68 67.73s13.73 15.2 8.21 28.51c0 0-5.7-9.3-15.16-9.3-9.14 0-14.55 9.3-33 9.3-41.07 0-60.53-33.64-60.53-33.64 37 23.92 62.28 7 62.28 7C78.57 100 43.14 54.61 43.14 54.61 74 80.4 87.36 87.17 87.36 87.17c-8-6.44-30.35-38-30.35-38 17.87 17.73 53.4 42.45 53.4 42.45 10.19-27.29-9.61-51.74-9.61-51.74z"
                    data-original="#ffffff" class=""></path>
            </g>
        </g>
    </g>
</svg>